HIERARCHY
ROOT Hips
{
  OFFSET -31.5692 30.0904 122.763
  CHANNELS 6 Xposition Yposition Zposition Zrotation Xrotation Yrotation
  JOINT LeftUpLeg
  {
    OFFSET 8.64259 1.95398 -2.38835
    CHANNELS 3 Zrotation Xrotation Yrotation
    JOINT LeftLeg
    {
      OFFSET 43.7702 0 0
      CHANNELS 3 Zrotation Xrotation Yrotation
      JOINT LeftFoot
      {
        OFFSET 40.6238 0 0
        CHANNELS 3 Zrotation Xrotation Yrotation
        JOINT LeftToeBase
        {
          OFFSET 12.7242 0 0
          CHANNELS 3 Zrotation Xrotation Yrotation
          End Site
          {
            OFFSET 0 0 0
          }
        }
      }
    }
  }
  JOINT RightUpLeg
  {
    OFFSET -8.2249 1.95398 -2.59336
    CHANNELS 3 Zrotation Xrotation Yrotation
    JOINT RightLeg
    {
      OFFSET 43.5653 0 0
      CHANNELS 3 Zrotation Xrotation Yrotation
      JOINT RightFoot
      {
        OFFSET 40.6238 0 0
        CHANNELS 3 Zrotation Xrotation Yrotation
        JOINT RightToeBase
        {
          OFFSET 12.7242 0 0
          CHANNELS 3 Zrotation Xrotation Yrotation
          End Site
          {
            OFFSET 0 0 0
          }
        }
      }
    }
  }
  JOINT Spine
  {
    OFFSET 0.165834 0.87714 6.61349
    CHANNELS 3 Zrotation Xrotation Yrotation
    JOINT Spine1
    {
      OFFSET 7.38963 1.71661e-005 0
      CHANNELS 3 Zrotation Xrotation Yrotation
      JOINT Spine2
      {
        OFFSET 11.9445 1.14441e-005 0
        CHANNELS 3 Zrotation Xrotation Yrotation
        JOINT Spine3
        {
          OFFSET 14.7254 4.19617e-005 0
          CHANNELS 3 Zrotation Xrotation Yrotation
          JOINT Spine4
          {
            OFFSET 10.9679 0 0
            CHANNELS 3 Zrotation Xrotation Yrotation
            JOINT RightShoulder
            {
              OFFSET 2.46616 -1.6653 3.69651
              CHANNELS 3 Zrotation Xrotation Yrotation
              JOINT RightArm
              {
                OFFSET 13.0012 0 0
                CHANNELS 3 Zrotation Xrotation Yrotation
                JOINT RightForeArm
                {
                  OFFSET 28.7848 1.62311e-005 0
                  CHANNELS 3 Zrotation Xrotation Yrotation
                  JOINT RightHand
                  {
                    OFFSET 26.5688 1.62095e-005 0
                    CHANNELS 3 Zrotation Xrotation Yrotation
                    End Site
                    {
                      OFFSET 0 0 0
                    }
                  }
                }
              }
            }
            JOINT LeftShoulder
            {
              OFFSET 2.38034 -1.29275 -3.7523
              CHANNELS 3 Zrotation Xrotation Yrotation
              JOINT LeftArm
              {
                OFFSET 16.3182 6.07031e-005 0
                CHANNELS 3 Zrotation Xrotation Yrotation
                JOINT LeftForeArm
                {
                  OFFSET 27.0901 0 0
                  CHANNELS 3 Zrotation Xrotation Yrotation
                  JOINT LeftHand
                  {
                    OFFSET 24.5451 1.51738e-005 0
                    CHANNELS 3 Zrotation Xrotation Yrotation
                    End Site
                    {
                      OFFSET 0 0 0
                    }
                  }
                }
              }
            }
            JOINT Neck
            {
              OFFSET 5.0226 -0.0266342 0
              CHANNELS 3 Zrotation Xrotation Yrotation
              JOINT Head
              {
                OFFSET 6.69364 2.86102e-005 0
                CHANNELS 3 Zrotation Xrotation Yrotation
                End Site
                {
                  OFFSET 0 0 0
                }
              }
            }
          }
        }
      }
    }
  }
}
MOTION
Frames:	12
Frame Time:	0.0416667
-287.856 95.1933 -247.088 -111.111 44.5664 -70.7609 -172.917 15.6144 93.9079 -44.2761 20.5882 1.43941 68.6292 5.81487 2.33701 18.8344 -3.73922 -2.46964 165.998 -4.13865 79.4169 -75.19 -19.1487 -5.46181 67.8447 -4.28151 -2.19099 23.1635 0.898309 6.77569 2.05212 7.58861 -90.7572 11.7308 3.72618 -1.90116 0.0635343 3.63891 -2.06344 -22.5123 4.12505 -0.691824 -2.49961 4.12505 -0.691829 96.6008 -38.0498 -92.1513 3.21697 5.71229 10.789 -30.0093 -6.25094 -84.6096 -38.2887 6.43017 -28.9607 -80.7448 -34.5921 91.6472 -39.2205 30.1284 50.4072 44.1489 -3.79663 -60.3752 2.63901 -3.22478 -67.8988 16.2919 -6.16713 0.363904 -7.30517 -6.05541 -0.990003 
-284.378 96.9259 -243.635 -110.679 43.7377 -71.0447 -174.068 14.9812 93.7049 -35.5242 23.7134 1.56612 59.9876 0.0681368 2.62695 19.1608 -3.62584 -2.37772 167.554 -11.5754 82.4296 -66.8046 -21.9323 -5.87335 68.1247 -4.57696 -2.09197 25.0032 0.14156 6.85698 2.51718 7.41449 -90.6558 12.0909 4.69444 -1.82365 0.426808 4.60963 -2.02882 -22.1757 5.02501 -0.325159 -2.16307 5.025 -0.325163 95.7111 -33.0621 -94.6531 4.04653 2.82909 14.5057 -32.3163 -5.64366 -85.9509 -38.0543 6.0129 -28.2856 -79.995 -32.6101 92.8967 -37.8283 28.3919 53.219 45.4367 -6.72779 -62.6058 3.92645 -4.48575 -70.7163 12.8465 -8.90378 -0.774187 -6.36141 -8.4426 -1.68543 
-280.998 98.5202 -239.89 -110.224 43.4947 -72.2608 -174.711 12.5308 92.6522 -22.4824 24.6937 1.01356 50.0033 -6.50316 0.507976 18.3112 -3.5209 -3.47005 168.678 -16.6881 83.947 -57.9622 -23.2193 -6.22857 69.6866 -5.86939 -2.39444 25.6067 -0.221249 7.39882 2.77374 7.33933 -90.4326 12.2401 5.30813 -1.45686 0.578901 5.23886 -1.68965 -22.0437 5.49984 0.210622 -2.03109 5.49984 0.21061 95.1368 -29.9075 -96.4787 4.84475 -2.88912 15.4523 -34.5548 -5.24543 -85.8615 -37.5769 5.43213 -27.2646 -79.1272 -32.8198 94.5528 -31.8301 25.373 51.6289 44.0456 -8.50192 -63.2902 4.78066 -5.43283 -72.9084 11.1441 -10.2387 -1.21089 -7.81802 -9.6058 -3.19273 
-276.874 99.6189 -236.042 -106.514 42.8767 -75.5612 -175.094 14.743 92.0783 -17.1176 23.8864 0.269122 51.6875 -5.34844 -1.4006 12.3605 -10.0788 3.46342 169.564 -17.3534 86.2398 -48.9506 -19.5313 -4.48913 72.195 -7.28011 -0.724636 25.8906 -0.460584 7.97681 2.63789 6.9874 -90.1735 12.9348 5.15433 -0.9728 1.27353 5.10653 -1.19929 -21.3436 5.20774 0.625566 -1.33095 5.20774 0.625562 94.6412 -28.2364 -97.8938 7.47967 -9.38249 16.3823 -35.461 -5.33081 -84.5321 -38.1899 5.79171 -28.2972 -80.1616 -33.0622 92.6134 -29.2218 19.013 51.8736 44.114 -6.59136 -64.6299 7.97772 -7.80963 -72.5126 10.0553 -10.4625 -1.96357 -9.80748 -9.57361 -4.27888 
-272.347 99.7966 -231.748 -101.878 41.8997 -79.7361 -176.022 20.0845 91.1526 -21.0442 22.6599 0.161418 56.4331 -2.33112 0.343511 12.4404 -10.2935 4.02467 169.589 -14.224 87.7906 -42.6364 -14.7484 -1.97976 72.1494 -7.41053 -1.88245 27.621 -1.17036 8.19854 2.41535 6.76356 -89.9501 13.37 4.81644 -0.511398 1.70778 4.78925 -0.723383 -20.8976 4.74695 0.963146 -0.884914 4.74697 0.963152 94.8512 -28.6771 -97.3482 11.1229 -12.7334 18.2657 -33.75 -4.8707 -83.686 -39.5344 6.65407 -29.7243 -81.1167 -37.2257 91.1915 -23.3421 17.0863 46.2113 42.0474 -4.45135 -65.4236 10.5899 -9.22728 -69.3723 13.1517 -10.2048 0.549764 -11.8829 -9.61233 -6.79428 
-267.464 99.0316 -227.297 -98.8696 40.4261 -82.5908 -176.515 24.7481 90.967 -29.0886 22.3917 0.333099 60.3563 0.432371 1.88833 15.4752 -7.35278 1.64835 170.354 -8.59969 89.6095 -42.0695 -8.4868 -0.324889 72.4603 -7.09089 -2.87342 24.1099 0.393403 7.30055 2.12121 6.86945 -89.7976 13.1472 4.30779 -0.127192 1.48337 4.29801 -0.317017 -21.1064 4.14649 1.17565 -1.09371 4.1465 1.17565 94.6679 -32.0447 -96.9241 15.3578 -13.5549 20.7599 -30.8559 -4.26927 -82.9608 -40.7983 7.05045 -29.4717 -82.1412 -41.5757 89.8233 -18.147 16.4597 35.794 40.533 -1.20329 -66.416 15.1745 -11.1198 -63.2872 20.1962 -9.71736 3.26272 -14.2641 -9.62922 -8.53337 
-262.546 97.9267 -222.765 -98.4965 40.1673 -83.5112 -175.487 28.7366 91.5342 -43.1772 22.9644 0.304068 67.8927 5.20631 2.16043 17.5129 -7.3316 3.87292 171.074 -3.27391 89.6796 -43.08 -6.85787 -0.127694 72.1996 -6.92294 -4.44374 21.2443 1.31643 8.12611 1.87195 7.21252 -89.7134 12.4537 3.85583 0.128773 0.788424 3.85774 -0.0413159 -21.7887 3.63862 1.28319 -1.77609 3.63862 1.28318 93.5043 -36.8518 -98.002 19.0706 -13.2843 23.6703 -27.468 -5.44718 -80.2917 -42.8528 6.39092 -25.8191 -84.0944 -45.8211 87.0992 -13.7997 15.3961 24.3634 37.9459 2.50416 -65.4604 16.3085 -10.9582 -59.7573 27.6829 -8.51348 4.52545 -16.7195 -8.93686 -8.26225 
-257.711 96.583 -218.138 -100.382 40.6961 -83.6557 -173.32 29.8574 92.1239 -56.7257 22.669 0.289635 72.6497 7.98522 1.48703 21.4957 -5.3984 4.43853 171.452 1.02013 89.3367 -46.1499 -8.55418 -1.32522 72.5081 -7.33425 -5.46657 30.1133 -1.82521 6.41572 1.37841 7.53654 -89.7019 11.8002 2.88137 0.288752 0.132412 2.8913 0.161544 -22.4252 2.66128 1.14197 -2.41252 2.66129 1.14196 92.4351 -38.718 -99.4976 24.3822 -14.8165 26.423 -26.3996 -10.3147 -73.8075 -47.7526 5.54665 -21.9252 -85.8739 -49.6257 84.8695 -9.94491 13.3261 14.5759 37.0901 5.96861 -64.4363 17.6306 -11.8721 -60.055 30.6026 -5.42749 5.15105 -17.422 -6.36605 -7.50049 
-253.102 95.0477 -213.67 -102.546 41.7523 -83.3924 -170.415 29.6103 93.5952 -69.1033 21.8624 0.735315 73.3207 7.99063 1.4074 22.6567 -4.19818 3.08552 172.184 4.24022 87.8738 -49.6753 -10.3014 -3.08118 75.4014 -9.7605 -4.57498 36.0854 -3.95643 4.86148 0.924658 7.84845 -89.6424 11.1734 2.00664 0.515504 -0.496033 2.02737 0.426662 -23.0404 1.7589 1.0949 -3.02781 1.75893 1.09492 94.7636 -39.2224 -95.2525 28.4833 -16.0101 26.8542 -30.7713 -21.2751 -67.9494 -44.6983 3.90133 -20.5567 -88.3346 -50.5301 81.3203 -6.23233 10.7739 2.62002 37.0597 9.16274 -63.5698 21.5847 -14.785 -61.2256 31.3935 -2.89829 3.96924 -16.5605 -3.76498 -5.63019 
-248.606 93.2829 -209.359 -103.832 42.9096 -83.6822 -167.238 28.6592 95.6032 -79.3651 24.2247 1.44917 69.1713 5.88866 5.94021 23.1513 -3.89923 2.93076 172.993 8.97779 86.8419 -53.8818 -10.6068 -4.182 79.0332 -12.4603 -3.82367 33.9504 -3.14433 5.25776 0.256972 8.01596 -89.4503 10.8374 0.765623 1.0215 -0.833674 0.809844 0.986808 -23.3666 0.423264 1.20436 -3.35391 0.42325 1.20436 95.924 -41.1657 -92.8874 28.9214 -15.9799 28.5674 -30.976 -31.8192 -62.3097 -40.2969 2.04131 -17.961 -87.3008 -49.305 82.6554 -5.09429 5.55007 -11.5296 38.2635 9.83195 -66.5038 18.4264 -12.7747 -61.4371 30.0456 -0.13155 1.80846 -14.278 -0.40229 -4.74412 
-244.294 92.2305 -205.37 -102.018 43.426 -83.7534 -166.897 28.2954 99.8099 -86.5248 23.9715 2.74913 66.1558 3.85875 8.02842 25.8133 -1.78989 1.04689 174.359 15.378 89.0567 -56.2458 -9.91448 -3.61218 79.6638 -13.1006 -4.44476 28.9548 -1.19872 5.68506 -0.438447 7.8777 -89.4588 11.1217 -0.621432 1.13704 -0.549703 -0.570783 1.16328 -23.0828 -0.934405 0.897741 -3.07019 -0.934423 0.897731 98.4156 -41.1688 -88.5613 29.0243 -13.6731 30.6581 -30.6523 -41.8454 -58.0951 -35.9245 0.953659 -16.9636 -85.8496 -45.7555 84.3267 -7.32686 -0.315676 -27.719 40.2191 11.2124 -68.2585 20.2039 -13.0643 -58.5024 29.661 1.56728 -3.63122 -13.2421 3.11837 -1.88056 
-240.937 92.4818 -201.748 -103.241 42.5295 -81.4292 -168.342 22.0813 103.664 -88.7217 25.447 4.5099 64.0887 2.51956 7.86452 24.9142 -2.04951 0.54184 175.062 17.5098 90.6857 -55.2569 -8.36237 -3.03555 76.7229 -10.7086 -3.69007 26.4711 -0.333014 6.35424 -1.36827 8.00038 -89.5495 10.8865 -2.51585 1.1337 -0.782544 -2.4635 1.24336 -23.3367 -2.74019 0.324663 -3.32407 -2.74017 0.324654 100.125 -39.5244 -85.6725 29.2788 -13.7566 34.8598 -27.2361 -43.2118 -54.9684 -35.0342 1.23788 -18.1818 -85.8464 -40.8138 83.499 -14.7371 -6.47471 -39.4499 42.3423 10.0369 -67.8578 19.4943 -12.3947 -57.9044 28.0765 4.07499 -7.8672 -11.4306 6.86891 0.796346 
